<svg width="13" height="10" viewBox="0 0 13 10" fill="none" xmlns="http://www.w3.org/2000/svg">
<path fill-rule="evenodd" clip-rule="evenodd" d="M10.7242 9.88508H1.6694C0.747335 9.88508 0 9.13867 0 8.21774V1.66734C0 0.746966 0.747335 0 1.6694 0H10.7242C11.6463 0 12.3936 0.746966 12.3936 1.66734V8.21774C12.3936 9.13867 11.6463 9.88508 10.7242 9.88508ZM1.79794 8.76963H10.5962C11.1238 8.76963 11.1527 8.40059 11.1527 8.21385V2.23923L7.50896 5.62615C6.77721 6.35644 5.58971 6.35644 4.8574 5.62615L1.24148 2.51156V8.21385C1.24148 8.40059 1.49077 8.76963 1.79794 8.76963ZM10.1455 1.23605H2.22086L5.74162 4.74524C5.98536 4.98867 6.381 4.98867 6.62529 4.74524L10.1455 1.23605Z" fill="white"/>
</svg>
