<svg width="12" height="13" viewBox="0 0 12 13" fill="none" xmlns="http://www.w3.org/2000/svg">
<path fill-rule="evenodd" clip-rule="evenodd" d="M9.48 12.714H1.904C0.795333 12.714 0 11.8599 0 10.8069V1.9071C0 0.85345 0.795333 0 1.904 0H9.48C10.3727 0 11.5533 0.85345 11.5533 1.9071V10.8069C11.5533 11.8599 10.3727 12.714 9.48 12.714ZM10.1733 2.22495C10.1733 1.6978 9.484 1.2714 8.93 1.2714H2.23867C1.68467 1.2714 1.23533 1.6978 1.23533 2.22495V10.489C1.23533 11.0155 1.68467 11.4426 2.23867 11.4426H8.93C9.484 11.4426 10.1733 11.0155 10.1733 10.489V2.22495ZM5.584 10.8069C5.03 10.8069 4.64667 10.3798 4.64667 9.85335C4.64667 9.32685 5.03 8.8998 5.584 8.8998C6.13867 8.8998 6.72 9.32685 6.72 9.85335C6.72 10.3798 6.13867 10.8069 5.584 10.8069Z" fill="white"/>
</svg>
